<?xml version="1.0" encoding="UTF-8" standalone="no"?><!DOCTYPE svg PUBLIC "-//W3C//DTD SVG 1.1//EN" "http://www.w3.org/Graphics/SVG/1.1/DTD/svg11.dtd"><svg width="100%" height="100%" viewBox="0 0 6620 1343" version="1.1" xmlns="http://www.w3.org/2000/svg" xmlns:xlink="http://www.w3.org/1999/xlink" xml:space="preserve" xmlns:serif="http://www.serif.com/" style="fill-rule:evenodd;clip-rule:evenodd;stroke-linejoin:round;stroke-miterlimit:2;"><g><g><circle cx="2559.62" cy="433.867" r="177.165" style="fill:#1dd3d3;"/><circle cx="354.769" cy="433.867" r="177.165" style="fill:#1dd3d3;"/><path d="M2678.18,382.564l129.938,-225.059l-66.487,-38.385l-129.937,225.058" style="fill:#1dd3d3;fill-rule:nonzero;"/><path d="M2850.21,181.81c-24.023,41.609 -77.226,55.868 -118.835,31.845c-41.612,-24.025 -55.869,-77.232 -31.846,-118.84c24.023,-41.609 77.23,-55.866 118.842,-31.841c41.609,24.023 55.862,77.227 31.839,118.836Z" style="fill:#1dd3d3;fill-rule:nonzero;"/><path d="M498.12,472.252l1919.77,0l0,-76.771l-1919.77,-0" style="fill:#1dd3d3;fill-rule:nonzero;"/><path d="M479.751,346.871l0,-259.875l-76.771,-0l-0,259.875" style="fill:#1dd3d3;fill-rule:nonzero;"/><path d="M528.361,86.996c0,48.046 -38.946,86.996 -86.991,86.996c-48.051,-0 -87.001,-38.95 -87.001,-86.996c0,-48.046 38.95,-86.996 87.001,-86.996c48.045,0 86.991,38.95 86.991,86.996Z" style="fill:#1dd3d3;fill-rule:nonzero;"/><path d="M243.612,462.083l-183.759,183.759l54.285,54.286l183.76,-183.76" style="fill:#1dd3d3;fill-rule:nonzero;"/><path d="M25.482,611.471c33.973,-33.973 89.054,-33.976 123.027,-0.003c33.977,33.977 33.977,89.06 0.003,123.034c-33.973,33.973 -89.057,33.973 -123.033,-0.003c-33.974,-33.974 -33.971,-89.054 0.003,-123.028Z" style="fill:#1dd3d3;fill-rule:nonzero;"/></g><g><path d="M316.269,690.687c0,-10.679 3.7,-19.716 11.096,-27.095c7.388,-7.396 16.417,-11.084 27.096,-11.084c10.679,0 19.817,3.688 27.413,11.084c7.591,7.379 11.396,16.416 11.396,27.095l-0,613.517c-0,10.679 -3.805,19.7 -11.396,27.096c-7.596,7.396 -16.734,11.088 -27.413,11.088c-10.679,-0 -19.708,-3.692 -27.096,-11.088c-7.396,-7.396 -11.096,-16.417 -11.096,-27.096l0,-613.517Z" style="fill:#323f4b;fill-rule:nonzero;"/><path d="M683.265,690.687c0,-10.679 3.7,-19.716 11.088,-27.095c7.396,-7.396 16.425,-11.084 27.104,-11.084c10.671,0 19.708,3.688 27.104,11.084c7.388,7.379 11.088,16.416 11.088,27.095l-0,71.459c75.55,-73.1 156.458,-109.638 242.687,-109.638c88.7,0 163.854,31.209 225.454,93.625c62.821,62.417 94.242,137.775 94.242,226.055l-0,332.016c-0,10.679 -3.804,19.7 -11.392,27.096c-7.608,7.396 -16.746,11.088 -27.416,11.088c-10.679,-0 -19.709,-3.692 -27.105,-11.088c-7.387,-7.396 -11.083,-16.417 -11.083,-27.096l0,-332.016c0,-67.75 -23.821,-124.838 -71.458,-171.242c-47.642,-48.033 -104.713,-72.059 -171.242,-72.059c-66.521,0 -123.804,24.026 -171.85,72.059c-47.229,46.812 -70.837,103.9 -70.837,171.242l-0,332.016c-0,10.679 -3.7,19.7 -11.088,27.096c-7.396,7.396 -16.433,11.088 -27.104,11.088c-10.679,-0 -19.708,-3.692 -27.104,-11.088c-7.388,-7.396 -11.088,-16.417 -11.088,-27.096l0,-613.517Z" style="fill:#323f4b;fill-rule:nonzero;"/><path d="M2160.87,997.446c-0,-74.313 -26.084,-137.563 -78.234,-189.725c-52.571,-52.55 -115.8,-78.834 -189.717,-78.834c-73.92,0 -137.158,26.284 -189.725,78.834c-52.566,52.571 -78.841,115.8 -78.841,189.725c-0,73.908 26.275,137.158 78.841,189.725c52.567,52.567 115.805,78.833 189.725,78.833c73.917,0 137.146,-26.266 189.717,-78.833c52.15,-52.146 78.234,-115.392 78.234,-189.725Zm-0,-413.763c-0,-10.662 3.783,-19.7 11.391,-27.095c7.592,-7.396 16.725,-11.084 27.417,-11.084c10.671,0 19.708,3.688 27.096,11.084c7.395,7.395 11.091,16.433 11.091,27.095l0,413.763c0,95.271 -33.679,176.575 -101.02,243.917c-67.359,67.362 -148.667,101.025 -243.926,101.025c-95.279,-0 -176.583,-33.663 -243.925,-101.025c-67.354,-67.342 -101.025,-148.646 -101.025,-243.917c0,-95.267 33.671,-176.571 101.025,-243.933c67.342,-67.342 148.646,-101.005 243.925,-101.005c95.259,0 176.567,33.663 243.926,101.005l24.025,24.025l-0,-193.855Z" style="fill:#323f4b;fill-rule:nonzero;"/><path d="M2518,690.687c-0,-10.679 3.7,-19.716 11.096,-27.095c7.387,-7.396 16.416,-11.084 27.095,-11.084c10.68,0 19.817,3.688 27.413,11.084c7.592,7.379 11.396,16.416 11.396,27.095l-0,613.517c-0,10.679 -3.804,19.7 -11.396,27.096c-7.596,7.396 -16.733,11.088 -27.413,11.088c-10.679,-0 -19.708,-3.692 -27.095,-11.088c-7.396,-7.396 -11.096,-16.417 -11.096,-27.096l-0,-613.517Z" style="fill:#323f4b;fill-rule:nonzero;"/><path d="M3427.68,1192.71c10.679,-0 19.716,3.795 27.104,11.387c7.396,7.608 11.088,16.733 11.088,27.413c-0,10.679 -3.905,19.929 -11.705,27.712c-31.208,26.708 -65.904,47.238 -104.095,61.608c-38.192,14.388 -78.446,21.555 -120.73,21.555c-95.279,-0 -176.583,-33.663 -243.925,-101.025c-67.354,-67.342 -101.025,-148.646 -101.025,-243.917c0,-95.267 33.671,-176.571 101.025,-243.933c67.342,-67.342 148.646,-101.005 243.925,-101.005c42.284,0 82.638,7.184 121.038,21.555c38.396,14.383 72.992,34.912 103.787,61.587c3.696,3.704 6.875,8.225 9.55,13.554c2.663,5.35 4.004,10.892 4.004,16.629c0,10.696 -3.695,19.717 -11.083,27.113c-7.396,7.379 -16.433,11.087 -27.104,11.087c-9.858,0 -18.075,-3.087 -24.642,-9.25c-50.108,-43.937 -108.625,-65.896 -175.55,-65.896c-73.92,0 -137.158,26.284 -189.725,78.834c-52.154,52.162 -78.225,115.412 -78.225,189.725c0,74.333 26.071,137.579 78.225,189.725c52.567,52.567 115.805,78.833 189.725,78.833c32.434,0 63.75,-5.946 93.934,-17.862c30.183,-11.896 57.379,-27.909 81.616,-48.05c6.159,-4.925 13.75,-7.379 22.788,-7.379Z" style="fill:#323f4b;fill-rule:nonzero;"/><path d="M4045.38,728.887c-73.913,0 -137.158,26.284 -189.725,78.834c-52.571,52.571 -78.833,115.8 -78.833,189.725c-0,73.908 26.262,137.158 78.833,189.725c52.567,52.567 115.812,78.833 189.725,78.833c73.908,0 137.158,-26.266 189.737,-78.833c52.125,-52.146 78.213,-115.392 78.213,-189.725c-0,-74.313 -26.088,-137.563 -78.213,-189.725c-52.579,-52.55 -115.829,-78.834 -189.737,-78.834Zm267.95,488.467c-82.958,83.354 -172.292,125.034 -267.95,125.034c-95.271,-0 -176.592,-33.663 -243.938,-101.025c-67.341,-67.342 -101.004,-148.646 -101.004,-243.917c0,-95.267 33.663,-176.571 101.004,-243.933c67.346,-67.342 148.667,-101.005 243.938,-101.005c95.283,0 176.575,33.663 243.904,101.005c67.337,67.362 101.046,148.666 101.046,243.933l-0,306.758c-0,10.679 -3.708,19.7 -11.083,27.096c-7.417,7.396 -16.459,11.088 -27.125,11.088c-10.667,-0 -19.792,-3.692 -27.417,-11.088c-7.583,-7.396 -11.375,-16.417 -11.375,-27.096l-0,-86.85Z" style="fill:#323f4b;fill-rule:nonzero;"/><path d="M4962.45,1266c10.625,0 19.792,3.709 27.375,11.088c7.625,7.396 11.416,16.433 11.416,27.112c0,10.679 -3.791,19.7 -11.416,27.096c-7.583,7.396 -16.75,11.088 -27.375,11.088c-161.833,-0 -242.708,-80.884 -242.708,-242.684l-0,-365.658l-63.459,-0c-10.667,-0 -19.833,-3.704 -27.417,-11.1c-7.583,-7.379 -11.375,-16.417 -11.375,-27.096c0,-10.683 3.792,-19.721 11.375,-27.096c7.584,-7.4 16.75,-11.087 27.417,-11.087l63.459,-0l-0,-93.071c-0,-10.663 3.666,-19.7 11.083,-27.096c7.375,-7.4 16.416,-11.087 27.083,-11.087c10.667,-0 19.834,3.687 27.417,11.087c7.583,7.396 11.416,16.433 11.416,27.096l0,93.071l115.167,-0c10.667,-0 19.792,3.687 27.417,11.087c7.583,7.375 11.416,16.413 11.416,27.096c0,10.679 -3.833,19.717 -11.416,27.096c-7.625,7.396 -16.75,11.1 -27.417,11.1l-115.167,-0l0,365.658c0,110.875 55.209,166.3 165.709,166.3Z" style="fill:#323f4b;fill-rule:nonzero;"/><path d="M5542.54,728.887c-73.875,0 -137.125,26.284 -189.708,78.834c-52.584,52.571 -78.833,115.8 -78.833,189.725c-0,73.908 26.249,137.158 78.833,189.725c52.583,52.567 115.833,78.833 189.708,78.833c73.917,0 137.167,-26.266 189.75,-78.833c52.125,-52.146 78.209,-115.392 78.209,-189.725c-0,-74.313 -26.084,-137.563 -78.209,-189.725c-52.583,-52.55 -115.833,-78.834 -189.75,-78.834Zm344.959,268.559c-0,95.271 -33.667,176.575 -101.042,243.917c-67.334,67.362 -148.625,101.025 -243.917,101.025c-95.25,-0 -176.583,-33.663 -243.916,-101.025c-67.334,-67.342 -101.001,-148.646 -101.001,-243.917c0,-95.267 33.667,-176.571 101.001,-243.933c67.333,-67.342 148.666,-101.005 243.916,-101.005c95.292,0 176.583,33.663 243.917,101.005c67.375,67.362 101.042,148.666 101.042,243.933Z" style="fill:#323f4b;fill-rule:nonzero;"/><path d="M6114.04,690.687c0,-10.679 3.709,-19.716 11.125,-27.095c7.375,-7.396 16.417,-11.084 27.084,-11.084c10.666,0 19.708,3.688 27.124,11.084c7.375,7.379 11.084,16.416 11.084,27.095l-0,86.851c83.375,-83.355 172.875,-125.03 268.542,-125.03c51.333,0 95.25,7.996 131.833,24.025c6.542,2.455 12.541,6.355 17.875,11.705c6.958,6.97 10.458,16.008 10.458,27.095c0,10.68 -3.708,19.717 -11.083,27.096c-7.375,7.396 -16.417,11.084 -27.125,11.084c-6.584,-0 -12.292,-1.217 -17.209,-3.688c-28.791,-13.962 -63.666,-20.938 -104.749,-20.938c-73.917,0 -137.167,26.284 -189.709,78.834c-52.583,52.162 -78.833,115.412 -78.833,189.725l-0,306.758c-0,10.679 -3.709,19.7 -11.084,27.096c-7.416,7.396 -16.458,11.088 -27.124,11.088c-10.667,-0 -19.709,-3.692 -27.084,-11.088c-7.416,-7.396 -11.125,-16.417 -11.125,-27.096l0,-613.517Z" style="fill:#323f4b;fill-rule:nonzero;"/><path d="M441.365,433.867c0,48.045 -38.945,86.996 -86.991,86.996c-48.05,-0 -87,-38.951 -87,-86.996c-0,-48.046 38.95,-86.996 87,-86.996c48.046,-0 86.991,38.95 86.991,86.996Z" style="fill:#323f4b;fill-rule:nonzero;"/><path d="M2646.62,433.867c0,48.045 -38.95,86.996 -86.995,86.996c-48.046,-0 -86.996,-38.951 -86.996,-86.996c-0,-48.046 38.95,-86.996 86.996,-86.996c48.045,-0 86.995,38.95 86.995,86.996Z" style="fill:#323f4b;fill-rule:nonzero;"/></g></g></svg>